<svg height="512pt" viewBox="0 -96 512.001 512" width="512pt" xmlns="http://www.w3.org/2000/svg"><path d="m255.515625 239.441406c-5.617187 0-11.105469-2.789062-14.324219-7.886718l-128.746094-203.886719c-4.988281-7.902344-2.628906-18.351563 5.273438-23.339844 7.902344-4.992187 18.351562-2.628906 23.339844 5.273437l128.746094 203.886719c4.988281 7.898438 2.628906 18.347657-5.273438 23.339844-2.804688 1.769531-5.929688 2.613281-9.015625 2.613281zm0 0" fill="#64aeff"/><g fill="#4694f2"><path d="m264.300781 236.964844c.074219-.046875.15625-.089844.230469-.136719.011719-.007813.023438-.015625.03125-.023437-.085938.054687-.175781.105468-.261719.160156zm0 0"/><path d="m258.476562 239.171875c-.261718.046875-.523437.089844-.785156.125.261719-.035156.523438-.078125.785156-.125zm0 0"/><path d="m259.511719 238.953125c-.238281.058594-.480469.113281-.722657.164063.242188-.046876.480469-.105469.722657-.164063zm0 0"/><path d="m123.035156 9.601562 44.449219 70.390626c.757813 1.199218 2.234375 1.722656 3.574219 1.265624 1.71875-.582031 3.542968-.890624 5.410156-.890624h9.277344l-44.683594-70.765626c-4.988281-7.898437-15.429688-10.261718-23.335938-5.277343 2.078126 1.304687 3.910157 3.0625 5.308594 5.277343zm0 0"/><path d="m207.113281 114.207031h-12.441406c-2.425781 0-3.898437 2.667969-2.601563 4.71875l51.761719 81.976563c1.210938 1.917968 4.011719 1.90625 5.210938-.015625l6.359375-10.207031zm0 0"/><path d="m260.546875 238.664062c-.222656.070313-.441406.136719-.667969.195313.222656-.058594.445313-.125.667969-.195313zm0 0"/><path d="m255.496094 239.441406h-.039063.058594c.644531 0 1.296875-.042968 1.945313-.121094-.648438.078126-1.300782.121094-1.964844.121094zm0 0"/><path d="m262.585938 237.878906c-.175782.082032-.355469.160156-.53125.234375.175781-.074219.351562-.152343.53125-.234375zm0 0"/><path d="m269.296875 232.308594c.09375-.132813.183594-.273438.273437-.410156-.089843.136718-.179687.277343-.273437.410156zm0 0"/><path d="m267.164062 234.777344c.089844-.085938.171876-.175782.257813-.261719-.085937.085937-.171875.175781-.257813.261719zm0 0"/><path d="m268.167969 233.722656c.113281-.128906.222656-.25.332031-.378906-.109375.128906-.21875.253906-.332031.378906zm0 0"/><path d="m266.089844 235.707031c-.097656.078125-.199219.15625-.296875.234375.097656-.078125.199219-.15625.296875-.234375zm0 0"/><path d="m261.570312 238.308594c-.199218.074218-.402343.148437-.605468.21875.203125-.070313.40625-.140625.605468-.21875zm0 0"/><path d="m263.582031 237.378906c-.140625.078125-.289062.152344-.433593.222656.144531-.070312.289062-.144531.433593-.222656zm0 0"/></g><path d="m98.421875 320.652344c-54.269531 0-98.421875-44.152344-98.421875-98.421875s44.152344-98.421875 98.421875-98.421875 98.421875 44.152344 98.421875 98.421875-44.152344 98.421875-98.421875 98.421875zm0-155.824219c-31.652344 0-57.402344 25.75-57.402344 57.402344 0 31.652343 25.75 57.402343 57.402344 57.402343s57.402344-25.75 57.402344-57.402343c0-31.652344-25.75-57.402344-57.402344-57.402344zm0 0" fill="#727070"/><path d="m413.578125 320.652344c-54.269531 0-98.421875-44.152344-98.421875-98.421875s44.152344-98.421875 98.421875-98.421875 98.421875 44.152344 98.421875 98.421875-44.152344 98.421875-98.421875 98.421875zm0-155.824219c-31.652344 0-57.402344 25.75-57.402344 57.402344 0 31.652343 25.75 57.402343 57.402344 57.402343s57.402344-25.75 57.402344-57.402343c0-31.652344-25.75-57.402344-57.402344-57.402344zm0 0" fill="#727070"/><path d="m137.765625 132.027344c22.136719 18.058594 36.296875 45.542968 36.296875 76.273437 0 54.273438-44.152344 98.421875-98.417969 98.421875-13.984375 0-27.289062-2.9375-39.347656-8.214844 16.957031 13.832032 38.585937 22.144532 62.125 22.144532 54.269531 0 98.421875-44.152344 98.421875-98.421875 0-40.285157-24.335938-74.992188-59.078125-90.203125zm0 0" fill="#545353"/><path d="m452.925781 132.027344c22.132813 18.058594 36.296875 45.542968 36.296875 76.273437 0 54.273438-44.152344 98.421875-98.421875 98.421875-13.980469 0-27.289062-2.9375-39.34375-8.214844 16.953125 13.832032 38.585938 22.144532 62.121094 22.144532 54.269531 0 98.421875-44.152344 98.421875-98.421875 0-40.285157-24.335938-74.992188-59.074219-90.203125zm0 0" fill="#545353"/><path d="m255.496094 239.441406h-157.074219c-6.148437 0-11.8125-3.335937-14.792969-8.707031-2.984375-5.375-2.820312-11.945313.433594-17.164063l78.042969-125.234374c3.089843-4.957032 8.519531-7.96875 14.359375-7.96875h157.078125c6.144531 0 11.808593 3.332031 14.792969 8.707031 2.984374 5.375 2.816406 11.945312-.433594 17.160156l-78.046875 125.234375c-3.085938 4.957031-8.515625 7.972656-14.359375 7.972656zm-126.59375-33.839844h117.203125l56.957031-91.394531h-117.203125zm0 0" fill="#64aeff"/><path d="m413.59375 239.441406c-5.613281 0-11.101562-2.789062-14.320312-7.886718l-128.746094-203.886719c-4.988282-7.902344-2.628906-18.351563 5.273437-23.339844 7.902344-4.992187 18.351563-2.628906 23.339844 5.273437l128.746094 203.886719c4.988281 7.898438 2.628906 18.347657-5.273438 23.339844-2.804687 1.769531-5.929687 2.613281-9.019531 2.613281zm0 0" fill="#64aeff"/><path d="m334.683594 33.839844h-64.609375c-9.34375 0-16.921875-7.574219-16.921875-16.917969 0-9.347656 7.578125-16.921875 16.921875-16.921875h64.609375c9.34375 0 16.921875 7.574219 16.921875 16.921875 0 9.34375-7.578125 16.917969-16.921875 16.917969zm0 0" fill="#9ba2ff"/><path d="m427.886719 213.488281-113.453125-179.667969c-.136719.003907-.269532.019532-.40625.019532h-14.65625c-2.421875 0-3.894532 2.671875-2.601563 4.71875l110.457031 174.929687c4.707032 7.449219 2.871094 17.160157-3.980468 22.429688 2.984375 2.296875 6.636718 3.523437 10.347656 3.523437 3.089844 0 6.214844-.84375 9.019531-2.613281 7.902344-4.988281 10.261719-15.441406 5.273438-23.339844zm0 0" fill="#4694f2"/><path d="m326.46875 116.042969c-1.210938-1.917969-4.011719-1.910157-5.210938.011719l-72.058593 115.414062c-.089844.148438-.191407.285156-.285157.429688-.09375.136718-.179687.277343-.277343.410156-.25.355468-.519531.699218-.792969 1.035156-.109375.128906-.222656.25-.332031.378906-.242188.273438-.492188.535156-.75.792969-.085938.085937-.167969.175781-.257813.261719-.34375.324218-.703125.632812-1.070312.929687-.097656.078125-.199219.15625-.296875.230469-.398438.304688-.808594.597656-1.230469.867188-.011719.003906-.019531.015624-.03125.019531-.078125.050781-.15625.089843-.234375.136719-.234375.144531-.472656.285156-.714844.417968-.144531.078125-.289062.148438-.433593.222656-.1875.097657-.375.191407-.566407.277344-.175781.082032-.351562.160156-.53125.234375-.160156.066407-.320312.132813-.480469.195313-.203124.074218-.402343.148437-.605468.21875-.136719.046875-.277344.09375-.417969.136718-.222656.070313-.445313.136719-.667969.195313-.121094.035156-.246094.0625-.367187.09375-.242188.058594-.484375.117187-.726563.164063-.101562.019531-.207031.035156-.3125.054687-.261718.046875-.523437.09375-.785156.125-.074219.011719-.152344.015625-.226562.027344-.628907.070312-1.257813.117187-1.890626.117187h20.535157c.023437 0 .042969.003906.066406.003906.644531 0 1.296875-.046874 1.945313-.121093.074218-.011719.152343-.015625.230468-.027344.261719-.03125.523438-.078125.785156-.125.101563-.019531.207032-.035156.3125-.054687.242188-.046876.480469-.105469.722657-.164063.125-.03125.246093-.058594.367187-.09375.226563-.058594.445313-.125.667969-.195313.140625-.042968.28125-.089843.421875-.136718.203125-.066406.402344-.140625.601562-.21875.164063-.0625.324219-.128906.484376-.195313.175781-.074219.351562-.152343.53125-.234375.1875-.085937.375-.179687.5625-.277344.144531-.074218.292968-.144531.4375-.222656.238281-.132812.476562-.273437.714843-.417968.078125-.046876.15625-.085938.230469-.136719.011719-.003907.023438-.015625.035156-.019531.421875-.269532.828125-.5625 1.226563-.867188.101562-.074219.199219-.152344.296875-.230469.371094-.296875.730468-.605469 1.074218-.929687.089844-.085938.171876-.175782.257813-.261719.257813-.257813.507813-.519531.75-.792969.109375-.128906.222656-.25.328125-.378906.277344-.335938.542969-.679688.796875-1.035156.09375-.136719.183594-.273438.273437-.410156.097657-.144532.195313-.28125.289063-.429688l64.386719-103.105469zm0 0" fill="#4694f2"/><path d="m334.683594 33.839844h-64.609375c-9.34375 0-16.921875-7.574219-16.921875-16.917969 0-9.347656 7.578125-16.921875 16.921875-16.921875h64.609375c9.34375 0 16.921875 7.574219 16.921875 16.921875 0 9.34375-7.578125 16.917969-16.921875 16.917969zm0 0" fill="#aeaeb4"/><path d="m334.683594 0h-29.957032c9.34375 0 16.917969 7.574219 16.917969 16.921875 0 9.34375-7.574219 16.917969-16.917969 16.917969h29.957032c9.34375 0 16.921875-7.574219 16.921875-16.917969 0-9.347656-7.578125-16.921875-16.921875-16.921875zm0 0" fill="#919191"/><path d="m201.558594 52.875h-112.648438c-2.761718 0-5-2.242188-5-5v-12.804688c0-18.992187 15.398438-34.390624 34.390625-34.390624h83.257813c2.761718 0 5 2.238281 5 5v42.195312c0 2.757812-2.238282 5-5 5zm0 0" fill="#727070"/><path d="m201.433594.679688h-30.457032v25.132812c0 2.832031-2.292968 5.128906-5.125 5.128906h-81.582031c-.230469 1.636719-.359375 3.304688-.359375 5.003906v11.800782c0 2.832031 2.296875 5.125 5.125 5.125h112.398438c2.832031 0 5.125-2.292969 5.125-5.125v-41.941406c0-2.828126-2.292969-5.125-5.125-5.125zm0 0" fill="#545353"/></svg>