<svg height="512pt" viewBox="0 0 512 511" width="512pt" xmlns="http://www.w3.org/2000/svg"><path d="m441.378906 436.871094v-62.234375c.328125-70.363281-38.214844-135.160157-100.203125-168.457031l4.414063-17.65625 31.867187-126.234376c4.628907-17.929687-1.152343-36.945312-14.976562-49.261718-13.828125-12.320313-33.382813-15.878906-50.660157-9.21875-17.28125 6.65625-29.390624 22.414062-31.375 40.828125l-13.675781 122.816406-1.941406 17.480469.644531.394531c-3.160156-.15625-6.277344-.484375-9.472656-.484375s-6.390625.328125-9.585938.496094l.882813-.230469-1.941406-17.65625-13.808594-122.792969c-1.984375-18.410156-14.09375-34.167968-31.375-40.828125-17.28125-6.65625-36.832031-3.097656-50.660156 9.21875-13.824219 12.320313-19.609375 31.335938-14.980469 49.265625l32.132812 126.148438 4.414063 17.476562.503906-.132812c-62.40625 33.148437-101.289062 98.164062-100.960937 168.828125v62.234375c-43.785156 7.945312-70.621094 18.625-70.621094 30.457031 0 24.363281 114.582031 44.136719 256 44.136719s256-19.773438 256-44.136719c0-11.832031-26.835938-22.511719-70.621094-30.457031zm0 0" fill="#ecf0f1"/><path d="m338.449219 1.496094c-13.480469-2.441406-27.371094.816406-38.363281 9-10.992188 8.179687-18.101563 20.550781-19.632813 34.164062l-13.683594 122.792969-1.941406 17.480469 11.652344 7.238281 42.636719 26.660156 16.332031 10.148438 10.152343-40.429688 31.867188-126.234375c3.378906-13.273437 1.097656-27.355468-6.300781-38.886718-7.394531-11.527344-19.242188-19.472657-32.71875-21.933594zm0 0" fill="#bdc3c7"/><path d="m231.546875 44.660156c-1.984375-18.410156-14.09375-34.167968-31.375-40.828125-17.28125-6.65625-36.832031-3.097656-50.660156 9.21875-13.824219 12.320313-19.609375 31.335938-14.980469 49.265625l32.132812 126.148438 4.414063 17.476562 17.300781-4.679687 46.613282-12.796875 12.269531-3.355469-1.941407-17.65625zm0 0" fill="#bdc3c7"/><path d="m377.46875 62.316406-31.867188 126.234375c-5.449218-2.804687-11.050781-5.308593-16.773437-7.503906-15.691406-6.238281-32.132813-10.394531-48.90625-12.359375-4.324219-.617188-8.738281-.96875-13.152344-1.234375l13.683594-122.792969c1.984375-18.410156 14.09375-34.167968 31.375-40.828125 17.28125-6.65625 36.832031-3.097656 50.660156 9.21875 13.824219 12.320313 19.609375 31.335938 14.980469 49.265625zm0 0" fill="#bdc3c7"/><path d="m441.378906 436.871094c43.785156 7.945312 70.621094 18.625 70.621094 30.457031 0 24.363281-114.582031 44.136719-256 44.136719s-256-19.773438-256-44.136719c0-11.832031 26.835938-22.511719 70.621094-30.457031zm0 0" fill="#35495e"/><path d="m409.414062 436.871094c36.238282 7.945312 58.449219 18.625 58.449219 30.457031 0 24.363281-94.828125 44.136719-211.863281 44.136719s-211.863281-19.773438-211.863281-44.136719c0-11.832031 22.210937-22.511719 58.449219-30.457031zm0 0" fill="#2c3e50"/><path d="m245.320312 167.453125c-4.503906.265625-8.828124.617187-13.242187 1.234375-16.773437 1.964844-33.214844 6.121094-48.90625 12.359375-5.625 2.183594-11.136719 4.660156-16.507813 7.417969l-32.132812-126.148438c-4.628906-17.929687 1.15625-36.945312 14.980469-49.265625 13.828125-12.316406 33.378906-15.875 50.660156-9.21875 17.28125 6.660157 29.390625 22.417969 31.375 40.828125zm0 0" fill="#bdc3c7"/><g fill="#ff5364"><path d="m232.078125 168.6875c-16.773437 1.964844-33.214844 6.121094-48.90625 12.359375l-31.515625-123.054687c-2.207031-8.535157-.757812-17.605469 4-25.027344 4.757812-7.417969 12.394531-12.523438 21.070312-14.078125 1.894532-.355469 3.816407-.535157 5.738282-.53125 16.167968.011719 29.742187 12.179687 31.515625 28.25zm0 0"/><path d="m238.34375 211.328125-44.3125 12.09375-5.652344-22.160156 46.613282-12.796875zm0 0"/><path d="m276.480469 192.171875 42.636719 26.660156-1.148438 4.589844-44.3125-12.09375zm0 0"/><path d="m360.34375 57.992188-31.515625 123.054687c-15.691406-6.238281-32.132813-10.394531-48.90625-12.359375l18.097656-122.082031c1.773438-16.070313 15.347657-28.238281 31.515625-28.25 1.921875-.003907 3.84375.175781 5.738282.53125 8.675781 1.554687 16.3125 6.660156 21.070312 14.078125 4.757812 7.421875 6.207031 16.492187 4 25.027344zm0 0"/></g><path d="m234.992188 188.464844-46.613282 12.796875-5.207031-20.214844c15.691406-6.238281 32.132813-10.394531 48.90625-12.359375zm0 0" fill="#df4d60"/><path d="m188.378906 201.261719-17.300781 4.679687-4.414063-17.476562c5.371094-2.757813 10.882813-5.234375 16.507813-7.417969zm0 0" fill="#95a5a5"/><path d="m247.261719 185.109375-12.269531 3.355469-2.914063-19.777344c4.414063-.617188 8.738281-.96875 13.242187-1.234375zm0 0" fill="#95a5a5"/><path d="m234.992188 188.464844 3.351562 22.863281-44.3125 12.09375-5.652344-22.160156zm0 0" fill="#bdc3c7"/><path d="m328.828125 181.046875-9.710937 37.785156-42.636719-26.660156 3.441406-23.484375c16.773437 1.964844 33.214844 6.121094 48.90625 12.359375zm0 0" fill="#df4d60"/><path d="m279.921875 168.6875-3.441406 23.484375-11.652344-7.238281 1.941406-17.480469c4.414063.265625 8.828125.617187 13.152344 1.234375zm0 0" fill="#95a5a5"/><path d="m276.480469 192.171875 42.636719 26.660156-1.148438 4.589844-44.3125-12.09375zm0 0" fill="#bdc3c7"/><path d="m345.601562 188.550781-10.152343 40.429688-16.332031-10.148438 9.710937-37.785156c5.722656 2.195313 11.324219 4.699219 16.773437 7.503906zm0 0" fill="#95a5a5"/><path d="m441.378906 458.5v-83.863281c1.207032-103.597657-81.78125-188.5625-185.378906-189.792969-103.597656 1.230469-186.585938 86.195312-185.378906 189.792969v83.863281s44.136718 26.480469 185.378906 26.480469 185.378906-26.480469 185.378906-26.480469zm0 0" fill="#bdc3c7"/><path d="m406.121094 466.265625c10.582031-3.726563 17.644531-13.742187 17.601562-24.960937v-66.667969c0-104.820313-75.09375-189.792969-167.722656-189.792969s-167.722656 84.972656-167.722656 189.792969v66.667969c-.042969 11.21875 7.019531 21.234374 17.601562 24.960937 22.316406 7.8125 68.128906 18.714844 150.121094 18.714844s127.804688-10.902344 150.121094-18.714844zm0 0" fill="#e6e7e8"/><path d="m203.035156 370.222656c-14.625 0-26.484375-11.855468-26.484375-26.480468 0-14.628907 11.859375-26.484376 26.484375-26.484376s26.480469 11.855469 26.480469 26.484376c0 14.625-11.855469 26.480468-26.480469 26.480468zm0 0" fill="#2c3e50"/><path d="m308.964844 370.222656c-14.625 0-26.480469-11.855468-26.480469-26.480468 0-14.628907 11.855469-26.484376 26.480469-26.484376s26.484375 11.855469 26.484375 26.484376c0 14.625-11.859375 26.480468-26.484375 26.480468zm0 0" fill="#2c3e50"/><path d="m256 405.535156c-4.875 0-8.828125-3.953125-8.828125-8.828125v-26.484375c0-4.875 3.953125-8.828125 8.828125-8.828125s8.828125 3.953125 8.828125 8.828125v26.484375c0 4.875-3.953125 8.828125-8.828125 8.828125zm0 0" fill="#bdc3c7"/><path d="m185.378906 392.292969c0-7.3125-9.878906-13.242188-22.070312-13.242188-12.1875 0-22.066406 5.929688-22.066406 13.242188s9.878906 13.242187 22.066406 13.242187c12.191406 0 22.070312-5.929687 22.070312-13.242187zm0 0" fill="#fb7b76"/><path d="m370.757812 392.292969c0-7.3125-9.878906-13.242188-22.066406-13.242188-12.191406 0-22.070312 5.929688-22.070312 13.242188s9.878906 13.242187 22.070312 13.242187c12.1875 0 22.066406-5.929687 22.066406-13.242187zm0 0" fill="#fb7b76"/><path d="m264.828125 379.050781h-17.65625c-4.875 0-8.828125-3.953125-8.828125-8.828125s3.953125-8.828125 8.828125-8.828125h17.65625c4.875 0 8.828125 3.953125 8.828125 8.828125s-3.953125 8.828125-8.828125 8.828125zm0 0" fill="#ff5364"/><path d="m298.726562 407.742188c-1.949218 7.640624-5.910156 14.625-11.476562 20.214843-1.484375 1.46875-3.078125 2.828125-4.765625 4.058594-7.625 5.765625-16.929687 8.867187-26.484375 8.828125-9.539062.011719-18.824219-3.050781-26.484375-8.738281v-.089844c-8.03125-5.992187-13.765625-14.5625-16.242187-24.273437-.683594-2.648438-.101563-5.460938 1.574218-7.621094 1.675782-2.160156 4.257813-3.417969 6.988282-3.414063h68.328124c2.730469-.003906 5.3125 1.253907 6.988282 3.414063 1.675781 2.160156 2.257812 4.972656 1.574218 7.621094zm0 0" fill="#802d40"/><path d="m282.484375 432.015625c-7.625 5.765625-16.929687 8.867187-26.484375 8.828125-9.539062.011719-18.824219-3.050781-26.484375-8.738281v-.089844c.015625-2.5625.816406-5.058594 2.296875-7.148437 5.910156-7.183594 14.90625-11.089844 24.1875-10.507813 9.230469-.546875 18.175781 3.316406 24.097656 10.417969 1.507813 2.117187 2.339844 4.640625 2.386719 7.238281zm0 0" fill="#df4d60"/><path d="m280.097656 424.777344c-7.136718 4.75-15.523437 7.269531-24.097656 7.238281-8.585938.015625-16.988281-2.46875-24.1875-7.148437 5.910156-7.183594 14.90625-11.089844 24.1875-10.507813 9.230469-.546875 18.175781 3.316406 24.097656 10.417969zm0 0" fill="#ff5364"/><path d="m203.035156 334.914062c0 4.875-3.953125 8.828126-8.828125 8.828126s-8.828125-3.953126-8.828125-8.828126 3.953125-8.828124 8.828125-8.828124 8.828125 3.953124 8.828125 8.828124zm0 0" fill="#ecf0f1"/><path d="m308.964844 334.914062c0 4.875-3.953125 8.828126-8.828125 8.828126s-8.828125-3.953126-8.828125-8.828126 3.953125-8.828124 8.828125-8.828124 8.828125 3.953124 8.828125 8.828124zm0 0" fill="#ecf0f1"/></svg>